<svg xmlns="http://www.w3.org/2000/svg" xmlns:xlink="http://www.w3.org/1999/xlink" viewBox="0 0 500 500"><defs><style>.cls-1{mask:url(#mask);filter:url(#luminosity-noclip-4);}.cls-11,.cls-12,.cls-14,.cls-2,.cls-21,.cls-22,.cls-25,.cls-26,.cls-27,.cls-28,.cls-34,.cls-4,.cls-6{mix-blend-mode:multiply;}.cls-2{fill:url(#linear-gradient);}.cls-3{mask:url(#mask-2);filter:url(#luminosity-noclip-5);}.cls-4{fill:url(#linear-gradient-2);}.cls-5{mask:url(#mask-3);filter:url(#luminosity-noclip-6);}.cls-6{fill:url(#linear-gradient-3);}.cls-7{isolation:isolate;}.cls-8{fill:#838bc5;}.cls-32,.cls-9{fill:#fff;}.cls-9{opacity:0.5;}.cls-10{mask:url(#mask-4);}.cls-11{fill:url(#linear-gradient-4);}.cls-12,.cls-15{fill:#999;}.cls-13{mask:url(#mask-5);}.cls-14{fill:url(#linear-gradient-5);}.cls-16{fill:#414042;}.cls-17{fill:#e6e7e8;}.cls-18,.cls-27{fill:#666;}.cls-19{fill:#333;}.cls-20,.cls-28{fill:#ccc;}.cls-21{fill:#939598;}.cls-22{fill:#58595b;}.cls-23{fill:#4d4d4d;}.cls-24{fill:#65c8d0;}.cls-25{fill:#e6e6e6;}.cls-26{fill:#b3b3b3;}.cls-29{fill:url(#linear-gradient-6);}.cls-30{fill:url(#linear-gradient-7);}.cls-31{fill:#0071bc;}.cls-32{opacity:0.3;}.cls-33{mask:url(#mask-6);}.cls-34{fill:url(#linear-gradient-8);}.cls-35{filter:url(#luminosity-noclip-3);}.cls-36{filter:url(#luminosity-noclip-2);}.cls-37{filter:url(#luminosity-noclip);}</style><filter id="luminosity-noclip" x="104.84" y="-8174" width="164.52" height="32766" filterUnits="userSpaceOnUse" color-interpolation-filters="sRGB"><feFlood flood-color="#fff" result="bg"/><feBlend in="SourceGraphic" in2="bg"/></filter><mask id="mask" x="104.84" y="-8174" width="164.52" height="32766" maskUnits="userSpaceOnUse"><g class="cls-37"/></mask><linearGradient id="linear-gradient" x1="239.25" y1="429.61" x2="139.46" y2="300.82" gradientUnits="userSpaceOnUse"><stop offset="0"/><stop offset="0.22" stop-color="#434343"/><stop offset="0.5" stop-color="#939393"/><stop offset="0.74" stop-color="#cdcdcd"/><stop offset="0.91" stop-color="#f1f1f1"/><stop offset="1" stop-color="#fff"/></linearGradient><filter id="luminosity-noclip-2" x="230.64" y="-8174" width="164.52" height="32766" filterUnits="userSpaceOnUse" color-interpolation-filters="sRGB"><feFlood flood-color="#fff" result="bg"/><feBlend in="SourceGraphic" in2="bg"/></filter><mask id="mask-2" x="230.64" y="-8174" width="164.52" height="32766" maskUnits="userSpaceOnUse"><g class="cls-36"/></mask><linearGradient id="linear-gradient-2" x1="-6050.56" y1="429.61" x2="-6150.35" y2="300.82" gradientTransform="matrix(-1, 0, 0, 1, -5789.81, 0)" xlink:href="#linear-gradient"/><filter id="luminosity-noclip-3" x="249.83" y="-8174" width="70.6" height="32766" filterUnits="userSpaceOnUse" color-interpolation-filters="sRGB"><feFlood flood-color="#fff" result="bg"/><feBlend in="SourceGraphic" in2="bg"/></filter><mask id="mask-3" x="249.83" y="-8174" width="70.6" height="32766" maskUnits="userSpaceOnUse"><g class="cls-35"/></mask><linearGradient id="linear-gradient-3" x1="249.83" y1="332.08" x2="320.44" y2="332.08" gradientUnits="userSpaceOnUse"><stop offset="0" stop-color="#fff"/><stop offset="0.09" stop-color="#f4f4f4"/><stop offset="0.24" stop-color="#d7d7d7"/><stop offset="0.44" stop-color="#a7a7a7"/><stop offset="0.68" stop-color="#646464"/><stop offset="0.95" stop-color="#111"/><stop offset="1"/></linearGradient><filter id="luminosity-noclip-4" x="104.84" y="239.6" width="164.52" height="245.4" filterUnits="userSpaceOnUse" color-interpolation-filters="sRGB"><feFlood flood-color="#fff" result="bg"/><feBlend in="SourceGraphic" in2="bg"/></filter><mask id="mask-4" x="104.84" y="239.6" width="164.52" height="245.4" maskUnits="userSpaceOnUse"><g class="cls-1"><path class="cls-2" d="M104.84,485h17.51s66.63-96.57,147-96.57V239.6c-40,32.42-164.52,140.78-164.52,232.24Z"/></g></mask><linearGradient id="linear-gradient-4" x1="239.25" y1="429.61" x2="139.46" y2="300.82" gradientUnits="userSpaceOnUse"><stop offset="0" stop-color="#fff"/><stop offset="0.22" stop-color="#bcbcbc"/><stop offset="0.5" stop-color="#6c6c6c"/><stop offset="0.74" stop-color="#323232"/><stop offset="0.91" stop-color="#0e0e0e"/><stop offset="1"/></linearGradient><filter id="luminosity-noclip-5" x="230.64" y="239.6" width="164.52" height="245.4" filterUnits="userSpaceOnUse" color-interpolation-filters="sRGB"><feFlood flood-color="#fff" result="bg"/><feBlend in="SourceGraphic" in2="bg"/></filter><mask id="mask-5" x="230.64" y="239.6" width="164.52" height="245.4" maskUnits="userSpaceOnUse"><g class="cls-3"><path class="cls-4" d="M395.16,485H377.65s-66.63-96.57-147-96.57V239.6c40,32.42,164.52,140.78,164.52,232.24Z"/></g></mask><linearGradient id="linear-gradient-5" x1="-6050.56" y1="429.61" x2="-6150.35" y2="300.82" gradientTransform="matrix(-1, 0, 0, 1, -5789.81, 0)" xlink:href="#linear-gradient-4"/><linearGradient id="linear-gradient-6" x1="250" y1="227.09" x2="250" y2="132.77" gradientUnits="userSpaceOnUse"><stop offset="0" stop-color="#808285"/><stop offset="0.24" stop-color="#888a8d"/><stop offset="0.6" stop-color="#9d9fa2"/><stop offset="1" stop-color="#bcbec0"/></linearGradient><linearGradient id="linear-gradient-7" x1="250" y1="224.7" x2="250" y2="135.16" gradientUnits="userSpaceOnUse"><stop offset="0" stop-color="#bcbec0"/><stop offset="0.4" stop-color="#9d9fa2"/><stop offset="0.76" stop-color="#888a8d"/><stop offset="1" stop-color="#808285"/></linearGradient><filter id="luminosity-noclip-6" x="249.83" y="258.96" width="70.6" height="146.25" filterUnits="userSpaceOnUse" color-interpolation-filters="sRGB"><feFlood flood-color="#fff" result="bg"/><feBlend in="SourceGraphic" in2="bg"/></filter><mask id="mask-6" x="249.83" y="258.96" width="70.6" height="146.25" maskUnits="userSpaceOnUse"><g class="cls-5"><path class="cls-6" d="M320.44,329.56,249.83,259l1,146.25h40.05C302.31,384.87,312.35,357.94,320.44,329.56Z"/></g></mask><linearGradient id="linear-gradient-8" x1="249.83" y1="332.08" x2="320.44" y2="332.08" gradientUnits="userSpaceOnUse"><stop offset="0"/><stop offset="0.09" stop-color="#0b0b0b"/><stop offset="0.24" stop-color="#282828"/><stop offset="0.44" stop-color="#585858"/><stop offset="0.68" stop-color="#9b9b9b"/><stop offset="0.95" stop-color="#eee"/><stop offset="1" stop-color="#fff"/></linearGradient></defs><title>ships</title><g class="cls-7"><g id="Layer_1" data-name="Layer 1"><path class="cls-8" d="M269.36,210.65S92.65,311.25,92.65,393.71V485h29.7s66.63-96.57,147-96.57Z"/><path class="cls-9" d="M98.94,396.59c0-73.12,138.95-160.5,170.42-179.35v-6.58S92.65,311.25,92.65,393.71V485h6.29Z"/><g class="cls-10"><path class="cls-11" d="M104.84,485h17.51s66.63-96.57,147-96.57V239.6c-40,32.42-164.52,140.78-164.52,232.24Z"/></g><path class="cls-12" d="M174.77,428.88c25.68-21.27,58.77-40.45,94.59-40.45V210.65s-67.45,38.4-119,87.2C153.57,330.57,162.69,392.46,174.77,428.88Z"/><path class="cls-8" d="M230.64,210.65s176.71,100.6,176.71,183.06V485h-29.7s-66.63-96.57-147-96.57Z"/><path class="cls-9" d="M401.06,396.59c0-73.12-138.95-160.5-170.42-179.35v-6.58s176.71,100.6,176.71,183.06V485h-6.29Z"/><g class="cls-13"><path class="cls-14" d="M395.16,485H377.65s-66.63-96.57-147-96.57V239.6c40,32.42,164.52,140.78,164.52,232.24Z"/></g><path class="cls-12" d="M325.23,428.88c-25.68-21.27-58.77-40.45-94.59-40.45V210.65s67.45,38.4,119,87.2C346.43,330.57,337.31,392.46,325.23,428.88Z"/><path class="cls-15" d="M212.81,417.71c0-3.94,2.31-10,6.26-16.05h61.87c4,6.06,6.26,12.11,6.26,16.05v36.63H212.81Z"/><rect class="cls-16" x="223.16" y="421.31" width="52.68" height="13.37" transform="translate(677.5 178.49) rotate(90)"/><rect class="cls-17" x="200.67" y="424.74" width="52.68" height="6.5" transform="translate(655 200.98) rotate(90)"/><rect class="cls-18" x="246.45" y="420.31" width="52.68" height="15.37" transform="translate(700.78 155.2) rotate(90)"/><rect class="cls-19" x="232.22" y="422.82" width="52.68" height="10.34" transform="translate(686.56 169.43) rotate(90)"/><path class="cls-20" d="M221.4,414.31v40h-8.59V417.71c0-3.94,2.31-10,6.26-16.05h4.25A54.91,54.91,0,0,0,221.4,414.31Z"/><rect class="cls-21" x="244.16" y="411.3" width="11.69" height="74.38" transform="translate(698.49 198.49) rotate(90)"/><path class="cls-22" d="M280.93,401.65H219.07A46.26,46.26,0,0,0,214,411.81h72A46.26,46.26,0,0,0,280.93,401.65Z"/><path class="cls-20" d="M341.86,200.27C341.86,129,300.73,15,250,15s-91.86,114-91.86,185.27c0,50.63,20.74,151,50.93,204.94h81.86C321.12,351.27,341.86,250.9,341.86,200.27Z"/><path class="cls-23" d="M174.14,309.18c8.82,35.6,20.85,70.86,34.93,96h81.86c14.08-25.16,26.1-60.42,34.93-96A544.29,544.29,0,0,1,250,314.37,544.29,544.29,0,0,1,174.14,309.18Z"/><path d="M192,367.68a280,280,0,0,0,17,37.53h81.86a280,280,0,0,0,17-37.53Z"/><path class="cls-24" d="M329.87,122.49C314.06,66.85,284.22,15,250,15s-64.06,51.85-79.87,107.49a554.76,554.76,0,0,1,159.74,0Z"/><path class="cls-25" d="M341.86,200.27C341.86,129,300.73,15,250,15h-.17v390.2h41.1C321.12,351.27,341.86,250.9,341.86,200.27Z"/><path class="cls-9" d="M209.11,39.89c-30.21,37.56-51,109.73-51,160.38s20.74,151,50.93,204.94h2c-23.52-58.49-39.36-155.95-39.36-206.45C171.68,149.65,186.66,81.34,209.11,39.89Z"/><path class="cls-9" d="M341.86,200.27c0-50.65-20.76-122.82-51-160.38,22.45,41.45,37.43,109.76,37.43,158.87,0,50.5-15.84,148-39.36,206.45h2C321.11,351.27,341.86,250.9,341.86,200.27Z"/><path class="cls-12" d="M238,325.92a726.32,726.32,0,0,1,82.18,4.59c1.68-5.87,3.29-11.79,4.8-17.74H175q2,7.78,4.15,15.48C198.23,326.73,217.88,325.92,238,325.92Z"/><rect class="cls-8" x="169.12" y="306.48" width="161.75" height="11.51" rx="5.76" ry="5.76"/><path class="cls-26" d="M324.92,318H175c-3.91-.06-3.81-5.8.09-5.87,29.18-.54,155.81-2.7,155.81.11h0A5.86,5.86,0,0,1,324.92,318Z"/><path class="cls-27" d="M211.37,187.45a66.71,66.71,0,0,0,5.51,26.73c5.41,12.39,19.81,20.43,35.56,20.43h12.68c15.75,0,30.15-8,35.56-20.43a67.55,67.55,0,0,0,0-53.46c-5.41-12.39-19.81-20.43-35.56-20.43H252.44c-15.75,0-30.15,8-35.56,20.43A66.71,66.71,0,0,0,211.37,187.45Z"/><path class="cls-28" d="M193.8,187.45a66.71,66.71,0,0,0,5.51,26.73c5.41,12.39,19.81,20.43,35.56,20.43h12.68c15.75,0,30.15-8,35.56-20.43a67.55,67.55,0,0,0,0-53.46c-5.41-12.39-19.81-20.43-35.56-20.43H234.88c-15.75,0-30.15,8-35.56,20.43A66.71,66.71,0,0,0,193.8,187.45Z"/><path class="cls-29" d="M202.59,179.93a66.71,66.71,0,0,0,5.51,26.73c5.41,12.39,19.81,20.43,35.56,20.43h12.68c15.75,0,30.15-8,35.56-20.43a67.55,67.55,0,0,0,0-53.46c-5.41-12.39-19.81-20.43-35.56-20.43H243.66c-15.75,0-30.15,8-35.56,20.43A66.71,66.71,0,0,0,202.59,179.93Z"/><path class="cls-30" d="M205,179.93a63.33,63.33,0,0,0,5.24,25.38C215.36,217.07,229,224.7,244,224.7h12c15,0,28.62-7.63,33.76-19.39a64.14,64.14,0,0,0,0-50.76c-5.14-11.77-18.8-19.39-33.76-19.39H244c-15,0-28.62,7.63-33.76,19.39A63.33,63.33,0,0,0,205,179.93Z"/><path d="M209.38,179.93a57.15,57.15,0,0,0,4.72,22.9c4.64,10.62,17,17.5,30.46,17.5h10.86c13.49,0,25.83-6.88,30.46-17.5a57.87,57.87,0,0,0,0-45.8c-4.64-10.62-17-17.5-30.46-17.5H244.57c-13.5,0-25.83,6.88-30.46,17.5A57.15,57.15,0,0,0,209.38,179.93Z"/><path class="cls-31" d="M211.91,179.93a53.59,53.59,0,0,0,4.43,21.47c4.35,10,15.91,16.41,28.56,16.41h10.19c12.65,0,24.22-6.45,28.56-16.41a54.27,54.27,0,0,0,0-42.95c-4.35-10-15.91-16.41-28.56-16.41H244.91c-12.65,0-24.22,6.45-28.56,16.41A53.59,53.59,0,0,0,211.91,179.93Z"/><path class="cls-32" d="M242.22,171.31h15.55c11.28,0,22,2.32,30.25,6.33a53.41,53.41,0,0,0-4.37-19.18c-4.35-10-15.91-16.41-28.57-16.41H244.91c-12.65,0-24.22,6.45-28.56,16.41A53.42,53.42,0,0,0,212,177.64C220.25,173.63,230.94,171.31,242.22,171.31Z"/><path class="cls-32" d="M219.2,195.44a46.15,46.15,0,0,1,5.3-21.47c5.21-10,19-16.41,34.2-16.41h12.2A51.56,51.56,0,0,1,284,159.23c-.11-.26-.2-.52-.32-.78-4.35-10-15.91-16.41-28.57-16.41H244.91c-12.65,0-24.22,6.45-28.56,16.41a54.27,54.27,0,0,0,0,42.95,23.73,23.73,0,0,0,4.73,7A45.87,45.87,0,0,1,219.2,195.44Z"/><g class="cls-33"><path class="cls-34" d="M320.44,329.56,249.83,259l1,146.25h40.05C302.31,384.87,312.35,357.94,320.44,329.56Z"/></g><path class="cls-8" d="M259.5,485h-19V336c0-9.69,4.25-77,9.5-77h0c5.25,0,9.5,67.34,9.5,77Z"/><path class="cls-26" d="M259.5,336c0-7.65-2.65-51.15-6.34-69.19-.31-1.53-1.55,68.53-1.55,70.17V485h7.89Z"/></g></g></svg>