<svg xmlns="http://www.w3.org/2000/svg" xmlns:xlink="http://www.w3.org/1999/xlink" viewBox="0 0 500 500"><defs><style>.cls-1{isolation:isolate;}.cls-14,.cls-15,.cls-16,.cls-18,.cls-19,.cls-2,.cls-23,.cls-36,.cls-37,.cls-38,.cls-39,.cls-43,.cls-44,.cls-45,.cls-46{mix-blend-mode:screen;}.cls-2{fill:url(#_223);}.cls-10,.cls-11,.cls-12,.cls-13,.cls-14,.cls-15,.cls-16,.cls-17,.cls-24,.cls-25,.cls-26,.cls-27,.cls-28,.cls-29,.cls-3,.cls-30,.cls-31,.cls-32,.cls-33,.cls-34,.cls-35,.cls-36,.cls-37,.cls-38,.cls-39,.cls-40,.cls-41,.cls-42,.cls-43,.cls-44,.cls-45,.cls-46,.cls-47,.cls-48,.cls-5,.cls-6,.cls-7,.cls-8,.cls-9{fill-rule:evenodd;}.cls-3{fill:url(#_423);}.cls-4{fill:url(#_214);}.cls-5{fill:url(#_119);}.cls-6{fill:url(#_435);}.cls-7{fill:url(#_162);}.cls-17,.cls-28,.cls-30,.cls-32,.cls-8,.cls-9{opacity:0.71;}.cls-17,.cls-21,.cls-22,.cls-26,.cls-28,.cls-30,.cls-32,.cls-47,.cls-48,.cls-8,.cls-9{mix-blend-mode:multiply;}.cls-8{fill:url(#_68);}.cls-9{fill:url(#_68-2);}.cls-10{fill:url(#_423-2);}.cls-11{fill:url(#_460);}.cls-12{fill:url(#_460-2);}.cls-13{fill:#fff;}.cls-14{opacity:0.64;fill:url(#_89);}.cls-15{fill:url(#_494);}.cls-16{fill:url(#_494-2);}.cls-17{fill:url(#_68-3);}.cls-18{fill:url(#_34);}.cls-19{fill:url(#_34-2);}.cls-20{mix-blend-mode:color-dodge;fill:url(#_414);}.cls-21{fill:url(#_210);}.cls-22{fill:url(#_210-2);}.cls-23{opacity:0.91;fill:url(#_494-3);}.cls-24{fill:url(#_184);}.cls-25{fill:url(#_119-2);}.cls-26{fill:url(#_214-2);}.cls-27{fill:url(#_423-3);}.cls-28{fill:url(#_68-4);}.cls-29{fill:url(#_423-4);}.cls-30{fill:url(#_68-5);}.cls-31{fill:url(#_423-5);}.cls-32{fill:url(#_68-6);}.cls-33{fill:url(#_473);}.cls-34{fill:url(#_473-2);}.cls-35{fill:url(#_460-3);}.cls-36,.cls-37,.cls-38,.cls-43,.cls-44,.cls-45{opacity:0.16;}.cls-36{fill:url(#_89-2);}.cls-37{fill:url(#_89-3);}.cls-38{fill:url(#_89-4);}.cls-39,.cls-46{opacity:0.5;}.cls-39{fill:url(#_494-4);}.cls-40{fill:url(#_473-3);}.cls-41{fill:url(#_473-4);}.cls-42{fill:url(#_460-4);}.cls-43{fill:url(#_89-5);}.cls-44{fill:url(#_89-6);}.cls-45{fill:url(#_89-7);}.cls-46{fill:url(#_494-5);}.cls-47{fill:url(#_210-3);}.cls-48{fill:url(#_210-4);}</style><radialGradient id="_223" cx="253.81" cy="303.89" r="73.95" gradientTransform="translate(10.2 100.18) scale(0.96 0.96)" gradientUnits="userSpaceOnUse"><stop offset="0" stop-color="#067fff"/><stop offset="0.17" stop-color="#0562c5"/><stop offset="0.4" stop-color="#034080"/><stop offset="0.6" stop-color="#022449"/><stop offset="0.78" stop-color="#011121"/><stop offset="0.92" stop-color="#000409"/><stop offset="1"/></radialGradient><radialGradient id="_423" cx="271.26" cy="397.19" r="67.01" gradientTransform="translate(10.2 10.2) scale(0.96 0.96)" gradientUnits="userSpaceOnUse"><stop offset="0" stop-color="#b1b5bd"/><stop offset="0.14" stop-color="#abaebd"/><stop offset="0.34" stop-color="#9b9bbf"/><stop offset="0.57" stop-color="#817cc0"/><stop offset="0.75" stop-color="#685ec2"/><stop offset="0.97" stop-color="#7a75d8"/></radialGradient><linearGradient id="_214" x1="252.59" y1="389.62" x2="252.59" y2="359.08" gradientUnits="userSpaceOnUse"><stop offset="0" stop-color="#e7e3f4"/><stop offset="0.07" stop-color="#dfd6ec"/><stop offset="0.37" stop-color="#c1a7cd"/><stop offset="0.64" stop-color="#ac85b7"/><stop offset="0.86" stop-color="#9f71a9"/><stop offset="1" stop-color="#9a69a4"/></linearGradient><linearGradient id="_119" x1="152.33" y1="361.87" x2="348.52" y2="361.87" gradientUnits="userSpaceOnUse"><stop offset="0" stop-color="#5b58a3"/><stop offset="0.44" stop-color="#5f59a3"/><stop offset="0.85" stop-color="#6a5ca2"/><stop offset="0.99" stop-color="#705ea2"/></linearGradient><linearGradient id="_435" x1="87.95" y1="321.43" x2="341.98" y2="321.43" gradientUnits="userSpaceOnUse"><stop offset="0.03" stop-color="#7a82ed"/><stop offset="0.21" stop-color="#7a75ed"/><stop offset="0.99" stop-color="#fdd3be"/><stop offset="1" stop-color="#ffd5bd"/></linearGradient><radialGradient id="_162" cx="281.7" cy="212.2" r="145.93" gradientTransform="translate(10.2 10.2) scale(0.96 0.96)" gradientUnits="userSpaceOnUse"><stop offset="0" stop-color="#ffd5bd"/><stop offset="0.1" stop-color="#f8d0bf"/><stop offset="0.25" stop-color="#e5c2c6"/><stop offset="0.43" stop-color="#c5abd2"/><stop offset="0.63" stop-color="#9a8ce1"/><stop offset="0.75" stop-color="#7a75ed"/><stop offset="0.97" stop-color="#7a82ed"/></radialGradient><linearGradient id="_68" x1="227.2" y1="284.82" x2="176.91" y2="243.63" gradientUnits="userSpaceOnUse"><stop offset="0" stop-color="#9a69a4"/><stop offset="0.13" stop-color="#a275ab"/><stop offset="0.38" stop-color="#b795bf"/><stop offset="0.69" stop-color="#dac8dd"/><stop offset="1" stop-color="#fff"/></linearGradient><linearGradient id="_68-2" x1="158.65" y1="378.46" x2="340.95" y2="378.46" xlink:href="#_68"/><radialGradient id="_423-2" cx="293.31" cy="350.81" r="119.32" xlink:href="#_423"/><radialGradient id="_460" cx="279.2" cy="222.79" r="13.01" gradientTransform="translate(10.2 10.2) scale(0.96 0.96)" gradientUnits="userSpaceOnUse"><stop offset="0.01" stop-color="#ff9aff"/><stop offset="0.09" stop-color="#fb94ff"/><stop offset="0.21" stop-color="#f183ff"/><stop offset="0.34" stop-color="#e068ff"/><stop offset="0.49" stop-color="#c841ff"/><stop offset="0.64" stop-color="#a910ff"/><stop offset="0.68" stop-color="#9f00ff"/><stop offset="0.74" stop-color="#9900f8"/><stop offset="0.83" stop-color="#8700e5"/><stop offset="0.93" stop-color="#6a00c6"/><stop offset="1" stop-color="#5200ab"/></radialGradient><radialGradient id="_460-2" cx="-1489.23" cy="-42.99" r="49.93" gradientTransform="matrix(1.7, 0.1, -0.05, 0.96, 2826.36, 382.82)" xlink:href="#_460"/><linearGradient id="_89" x1="236.47" y1="203.72" x2="213.12" y2="204.87" gradientUnits="userSpaceOnUse"><stop offset="0" stop-color="#623964"/><stop offset="1" stop-color="#ffc209"/></linearGradient><radialGradient id="_494" cx="336.68" cy="332.98" r="25.48" gradientTransform="translate(10.2 10.2) scale(0.96 0.96)" gradientUnits="userSpaceOnUse"><stop offset="0" stop-color="#fff"/><stop offset="1" stop-color="#623964"/></radialGradient><radialGradient id="_494-2" cx="290.11" cy="333.11" r="61.19" xlink:href="#_494"/><linearGradient id="_68-3" x1="211.88" y1="325.91" x2="140.1" y2="330.7" xlink:href="#_68"/><radialGradient id="_34" cx="-401.74" cy="87.46" r="20.78" gradientTransform="translate(895.24 140.99) scale(1.52 1.28)" gradientUnits="userSpaceOnUse"><stop offset="0.01" stop-color="#f4ff09"/><stop offset="0.07" stop-color="#dfe908"/><stop offset="0.27" stop-color="#9ca306"/><stop offset="0.46" stop-color="#646904"/><stop offset="0.63" stop-color="#393c02"/><stop offset="0.78" stop-color="#1a1b01"/><stop offset="0.91" stop-color="#070700"/><stop offset="1"/></radialGradient><radialGradient id="_34-2" cx="227.16" cy="17.48" r="20.78" gradientTransform="translate(43.57 175.93) scale(1 1.31)" xlink:href="#_34"/><radialGradient id="_414" cx="-276.04" cy="42.95" r="20.77" gradientTransform="translate(564.65 175.93) scale(1.31 1.31)" gradientUnits="userSpaceOnUse"><stop offset="0.01" stop-color="#b61e2d"/><stop offset="0.08" stop-color="#a21b28"/><stop offset="0.32" stop-color="#69111a"/><stop offset="0.54" stop-color="#3b0a0f"/><stop offset="0.73" stop-color="#1b0407"/><stop offset="0.89" stop-color="#070102"/><stop offset="1"/></radialGradient><linearGradient id="_210" x1="181.36" y1="272.5" x2="315.08" y2="272.5" gradientUnits="userSpaceOnUse"><stop offset="0" stop-color="#b3a6db"/><stop offset="0.41" stop-color="#a685be"/><stop offset="0.77" stop-color="#9d71ab"/><stop offset="1" stop-color="#9a69a4"/></linearGradient><linearGradient id="_210-2" x1="226.3" y1="231.83" x2="264.89" y2="231.83" xlink:href="#_210"/><radialGradient id="_494-3" cx="249.17" cy="306.45" r="35.55" xlink:href="#_494"/><radialGradient id="_184" cx="248.56" cy="324.18" r="27.56" gradientTransform="translate(10.2 10.2) scale(0.96 0.96)" gradientUnits="userSpaceOnUse"><stop offset="0.01" stop-color="#60dbff"/><stop offset="0.18" stop-color="#56d6ff"/><stop offset="0.48" stop-color="#3ccaff"/><stop offset="0.86" stop-color="#12b6ff"/><stop offset="1" stop-color="#00aeff"/></radialGradient><linearGradient id="_119-2" x1="212.04" y1="320.24" x2="285.2" y2="320.24" xlink:href="#_119"/><linearGradient id="_214-2" x1="248.03" y1="325.91" x2="248.03" y2="312.16" xlink:href="#_214"/><radialGradient id="_423-3" cx="180.02" cy="420.23" r="27.64" xlink:href="#_423"/><linearGradient id="_68-4" x1="224.41" y1="399.37" x2="249.8" y2="399.37" xlink:href="#_68"/><radialGradient id="_423-4" cx="256.69" cy="425.44" r="24.89" xlink:href="#_423"/><linearGradient id="_68-5" x1="171.22" y1="394.52" x2="200.9" y2="394.52" xlink:href="#_68"/><radialGradient id="_423-5" cx="-3941.22" cy="420.23" r="27.64" gradientTransform="matrix(-0.96, 0, 0, 0.96, -3467.97, 10.2)" xlink:href="#_423"/><linearGradient id="_68-6" x1="275.76" y1="395.81" x2="313.08" y2="395.81" xlink:href="#_68"/><radialGradient id="_473" cx="170.24" cy="135.27" r="210.65" gradientTransform="translate(10.2 10.2) scale(0.96 0.96)" gradientUnits="userSpaceOnUse"><stop offset="0" stop-color="#eaaee6"/><stop offset="0.22" stop-color="#e095eb"/><stop offset="0.68" stop-color="#c855f6"/><stop offset="1" stop-color="#b524ff"/></radialGradient><radialGradient id="_473-2" cx="19.76" cy="401.59" r="80.06" xlink:href="#_473"/><radialGradient id="_460-3" cx="258.16" cy="126.93" r="324.24" xlink:href="#_460"/><linearGradient id="_89-2" x1="-112.19" y1="185.1" x2="11.89" y2="259.87" xlink:href="#_89"/><linearGradient id="_89-3" x1="-79.83" y1="131.41" x2="44.25" y2="206.19" xlink:href="#_89"/><linearGradient id="_89-4" x1="-99.88" y1="164.67" x2="24.2" y2="239.44" xlink:href="#_89"/><radialGradient id="_494-4" cx="147.4" cy="149.59" r="138.5" xlink:href="#_494"/><radialGradient id="_473-3" cx="-4309.55" cy="133.14" r="210.65" gradientTransform="matrix(-0.96, 0, 0, 0.96, -3807.14, 10.2)" xlink:href="#_473"/><radialGradient id="_473-4" cx="-4460.03" cy="399.46" r="80.06" gradientTransform="matrix(-0.96, 0, 0, 0.96, -3807.14, 10.2)" xlink:href="#_473"/><radialGradient id="_460-4" cx="-4221.63" cy="124.8" r="324.24" gradientTransform="matrix(-0.96, 0, 0, 0.96, -3807.14, 10.2)" xlink:href="#_460"/><linearGradient id="_89-5" x1="-4591.98" y1="183.06" x2="-4467.89" y2="257.84" gradientTransform="matrix(-1, 0, 0, 1, -3979.79, 0)" xlink:href="#_89"/><linearGradient id="_89-6" x1="-4559.62" y1="129.37" x2="-4435.54" y2="204.15" gradientTransform="matrix(-1, 0, 0, 1, -3979.79, 0)" xlink:href="#_89"/><linearGradient id="_89-7" x1="-4579.67" y1="162.63" x2="-4455.58" y2="237.41" gradientTransform="matrix(-1, 0, 0, 1, -3979.79, 0)" xlink:href="#_89"/><radialGradient id="_494-5" cx="-4332.38" cy="147.46" r="138.5" gradientTransform="matrix(-0.96, 0, 0, 0.96, -3807.14, 10.2)" xlink:href="#_494"/><linearGradient id="_210-3" x1="52.46" y1="369.2" x2="158.65" y2="369.2" xlink:href="#_210"/><linearGradient id="_210-4" x1="341.35" y1="367.16" x2="447.54" y2="367.16" xlink:href="#_210"/></defs><title>ships</title><g class="cls-1"><g id="Layer_1" data-name="Layer 1"><circle class="cls-2" cx="253.65" cy="391.67" r="70.93"/><path class="cls-3" d="M171,374.62s4.82,12.38,18,25.53c0,0,55.52,11,119.07,0,0,0,20-14.54,26.23-25.53Z"/><ellipse class="cls-4" cx="252.59" cy="374.62" rx="81.63" ry="12.75"/><path class="cls-5" d="M152.33,345.75c8.77,18.23,33.6,27,33.6,27s61.86,21.18,130.82-1.46c0,0,20.61-8.65,31.77-29.3Z"/><path class="cls-6" d="M273.77,297.69c-112.69-4.22-145.91,15.72-145.91,15.72s19.41,33.47,125.79,32.31S381.9,313.41,381.9,313.41,343.53,300.3,273.77,297.69Z"/><path class="cls-7" d="M350.83,312S294.26,332.05,224,327.56a279.15,279.15,0,0,1-69.7-13.13s-.36-93,94.32-95.31a117.07,117.07,0,0,1,28.52,2.59C344.92,236.83,350.83,312,350.83,312Z"/><path class="cls-8" d="M264.89,227.15c-7.49,8.83-55.54,8.36-55.54,8.36s-16.58,4-24.61,30.76,6.68,50.66,39.3,61.3a279.15,279.15,0,0,1-69.7-13.13s-.36-93,94.32-95.31C259.22,218.86,264.89,227.15,264.89,227.15Z"/><path class="cls-9" d="M326.71,365.61c-35-3.54-112.78,2.45-121.58,11.92,0,0,44.06,9.83,87.87,0,0,0-22.57,9.84-73.8,8.79L220.6,404s-20.17-.82-32.76-4.66c0,0-11.14-11.16-16.89-24.71,0,0-.39-2.93,7.29-5.27,0,0-13-6.42-19.59-14.49,0,0,179-1.29,182.3-1.91Z"/><path class="cls-10" d="M127.87,313.41s-4.07,16,0,32.82c0,0,96.5,39.31,254-2.72,0,0,4.18-23.71,0-30.09,0,0-66.76,33.1-153.37,27.29S127.87,313.41,127.87,313.41Z"/><path class="cls-11" d="M231.22,223.55c-5.91,2.28,18.44,13.33,37.89,1.48C279.9,218.46,240.21,220.08,231.22,223.55Z"/><path class="cls-12" d="M235.15,227s11.77,8.47,29.73.19c0,0,9.89-9.18,15.08-21.21,7.53-17.44,7.52-38.32-27.38-24.79-8.11,3.14-11.33-9.18-20.82-2.7C210.93,192.68,235.15,227,235.15,227Z"/><path class="cls-13" d="M268.83,189.24c-10.75,22.31,3.65,13.25,6.43,8.6C279.56,190.64,275.38,175.65,268.83,189.24Z"/><path class="cls-14" d="M228.56,181.14c-5.38,25.34,6.45,45.62,6.45,45.62s-12.18-22.25-11.83-29.87C223.74,184.89,228.56,181.14,228.56,181.14Z"/><path class="cls-15" d="M346.47,326.7a294,294,0,0,1-34.9,7.7l3.4,23s22.61-3.57,33.56-5.95Z"/><path class="cls-16" d="M206.39,338.72s90.77,7,164.17-21.29C370.56,317.44,303.17,352.67,206.39,338.72Z"/><path class="cls-17" d="M158.65,354.85a139.35,139.35,0,0,1,22.7-20.37l41.83-6.79s-34-2.27-68.84-13.25l.78-10.13s-24.35,5.75-27.26,9.11c0,0-4.46,21.19,0,32.82Z"/><path class="cls-13" d="M288.05,232.18c-8-.41,2.8,12.56,7.47,10.8S292.67,232.41,288.05,232.18Z"/><ellipse class="cls-18" cx="285.2" cy="252.63" rx="31.55" ry="26.52"/><ellipse class="cls-19" cx="270.96" cy="198.81" rx="20.8" ry="27.2"/><circle class="cls-20" cx="203.21" cy="232.17" r="27.2"/><path class="cls-21" d="M181.56,245.53l2.77,7.24L187,260c1.79,4.85,3.62,9.68,5.37,14.54l10.45,29.19-1.31-1.11c7.88,1.08,15.91,1.74,23.9,2.14s16,.53,24,.26c4-.13,8-.35,12-.67s7.94-.81,11.88-1.4,7.85-1.32,11.72-2.23a116.87,116.87,0,0,0,11.41-3.34l-1,1c2-4.89,3.9-9.88,5.72-14.87s3.54-10,5.18-15.1,3.24-10.14,4.68-15.27c.69-2.57,1.41-5.13,2-7.73s1.24-5.18,1.83-7.79l.22,0c-.91,5.26-2,10.48-3.3,15.67s-2.72,10.32-4.25,15.43S304.34,279,302.61,284s-3.53,10.07-5.46,15.05l0,.07-.07,0a118.64,118.64,0,0,1-11.58,3.53c-3.92,1-7.89,1.73-11.87,2.37s-8,1.09-12,1.46-8,.58-12.08.72q-12.1.35-24.19-.37c-8.05-.48-16.09-1.22-24.07-2.42l-.1,0,0-.1L181.36,245.6Z"/><path class="cls-22" d="M226.47,227.74c7.16,6.95,38.42,4.43,38.42,4.43s-22.18,6.34-31.26,2.52S226.47,227.74,226.47,227.74Z"/><path class="cls-23" d="M201.24,304.47s60.59,8.29,95.92-5.4a104.51,104.51,0,0,1-46.52,10.13A351.91,351.91,0,0,1,201.24,304.47Z"/><path class="cls-24" d="M212,326.57,223.18,315l52.49-1.63,9.53,12.46S245.1,332.18,212,326.57Z"/><polygon class="cls-25" points="215.23 327.07 223.18 316.6 274.68 315.23 278.98 326.7 285.2 325.87 275.68 313.41 223.18 315.05 212.04 326.56 215.23 327.07"/><polygon class="cls-26" points="216.09 322.38 216.88 324.89 226.29 318.33 272.86 318.33 277.71 323.29 279.97 319.03 275.68 313.41 223.18 315.05 216.09 322.38"/><path class="cls-27" d="M201.24,399.6s-23.71,25-32.84,21.91c-4.57-1.56-1.78-9.49,2.82-17.53h0c4.59-8,11-16.12,13.61-18.07,4.61-3.4,14,4.15,16.07,10.47A6.79,6.79,0,0,1,201.24,399.6Z"/><path class="cls-28" d="M245.2,393.72c-9,2.87-20.79,10.52-20.79,10.52s15.31.85,25.39.77Z"/><path class="cls-29" d="M241.08,396.31c-4.38,11.5,4,37.81,11.51,37.8,9.87,0,15.88-36,11-38.72S242.81,391.77,241.08,396.31Z"/><path class="cls-30" d="M200.9,396.37C189.4,391,171.22,404,171.22,404h0c4.59-8,11-16.12,13.61-18.07C189.44,382.5,198.83,390,200.9,396.37Z"/><path class="cls-31" d="M294,399.6s23.71,25,32.84,21.91C331.44,420,328.64,412,324,404h0c-4.59-8-11-16.12-13.61-18.07-4.61-3.4-14,4.15-16.07,10.47A6.78,6.78,0,0,0,294,399.6Z"/><path class="cls-32" d="M313.08,388.48a24.37,24.37,0,0,0-2.65-2.58c-.68-.41-7.42-5.75-34.66,18.15,0,0,13.13-1.88,20.55-2.12.24,0,1.14,1.32,4.78,4.58,0,0-1.62-12.19,2.35-16.7S313.08,388.48,313.08,388.48Z"/><path class="cls-33" d="M152.35,39.63l2,26.87c-10.48,120.69-6.76,193.23-9.67,248.06L141,319.15s-22.89-73.26-14.95-151.28S152.35,39.63,152.35,39.63Z"/><path class="cls-34" d="M144.55,351.49l7.93,2-.15,12.16s-62.82,12.83,6.33,56.15h-6.18L83.74,385.06Z"/><path class="cls-35" d="M152.48,421.78c-46.74-7.23-78.74-29.7-100-52.92C24.42,338.28,15,306.41,15,306.41,28.7,204.86,157.44,18.84,152.33,41.3,123.43,168.23,141,319.16,141,319.16l-13.14-2.54v29.62l16.69,5.25,3,11.82C81.6,379.4,152.48,421.78,152.48,421.78Z"/><path class="cls-36" d="M29.63,281.72c-4.59,43.9,27.58,4.85,29.4-15S32.1,258.16,29.63,281.72Z"/><path class="cls-37" d="M63.32,217.56c-7.11,18.22,8.22,29.59,14.79,10.53S71.54,196.51,63.32,217.56Z"/><path class="cls-38" d="M70.69,265.07c-7.24,12.86,3.59,21,9.21,10.91S78.05,252,70.69,265.07Z"/><path class="cls-39" d="M143.86,87.5c-22.66,84.11-6.53,184.43-6.53,184.43s-3.12-65.09.77-110.57S143.86,87.5,143.86,87.5Z"/><path class="cls-40" d="M347.65,37.6l-2,26.87c10.48,120.69,6.76,193.23,9.67,248.06l3.67,4.59s22.89-73.26,14.95-151.28S347.65,37.6,347.65,37.6Z"/><path class="cls-41" d="M355.45,349.45l-7.93,2,.15,12.16s62.82,12.83-6.33,56.15h6.18L416.26,383Z"/><path class="cls-42" d="M347.52,419.74c46.74-7.23,78.74-29.7,100-52.92,28-30.58,37.46-62.46,37.46-62.46C471.3,202.83,342.56,16.8,347.67,39.26,376.57,166.2,359,317.12,359,317.12l13.14-2.54v29.62l-16.69,5.25-3,11.82C418.4,377.36,347.52,419.74,347.52,419.74Z"/><path class="cls-43" d="M470.37,279.68c4.59,43.9-27.58,4.85-29.4-15S467.9,256.12,470.37,279.68Z"/><path class="cls-44" d="M436.68,215.52c7.11,18.22-8.22,29.59-14.79,10.53S428.46,194.47,436.68,215.52Z"/><path class="cls-45" d="M429.31,263c7.24,12.86-3.59,21-9.21,10.91S421.95,249.94,429.31,263Z"/><path class="cls-46" d="M356.14,85.46c22.66,84.11,6.53,184.43,6.53,184.43s3.12-65.09-.77-110.57S356.14,85.46,356.14,85.46Z"/><path class="cls-47" d="M158.65,421.78c-32.77,0-83.58-26-106.2-52.92l75.41-52.25v29.62l24.61,7.24-.15,12.16C89.73,381.75,158.65,421.78,158.65,421.78Z"/><path class="cls-48" d="M372.14,314.58l75.41,52.25S413.85,413,341.35,419.74c0,0,30.12-17,32.44-34.63,2-14.9-26.11-21.52-26.11-21.52l-.15-12.16,24.61-7.24V314.58Z"/></g></g></svg>